<svg width="18" height="18" viewBox="0 0 18 18" fill="none" xmlns="http://www.w3.org/2000/svg">
<path d="M13.1666 1.78333C14.4335 2.51473 15.4854 3.56672 16.2169 4.83356C16.9483 6.1004 17.3333 7.53744 17.3333 9.00026C17.3333 10.4631 16.9482 11.9001 16.2168 13.1669C15.4854 14.4338 14.4334 15.4857 13.1665 16.2171C11.8997 16.9485 10.4626 17.3336 8.99983 17.3335C7.53701 17.3335 6.09998 16.9484 4.83316 16.217C3.56633 15.4856 2.51437 14.4336 1.78299 13.1667C1.05161 11.8999 0.666589 10.4628 0.666626 8.99999L0.670793 8.72999C0.717462 7.29082 1.13625 5.88829 1.88633 4.65915C2.6364 3.43001 3.69217 2.4162 4.9507 1.71656C6.20923 1.01692 7.62758 0.655322 9.06746 0.667023C10.5073 0.678724 11.9196 1.06332 13.1666 1.78333ZM8.99996 3.99999C8.77894 3.99999 8.56698 4.08779 8.4107 4.24407C8.25442 4.40035 8.16663 4.61231 8.16663 4.83333V8.99999C8.16663 9.22101 8.25442 9.43297 8.4107 9.58925C8.56698 9.74553 8.77894 9.83333 8.99996 9.83333H11.9166C12.1376 9.83333 12.3496 9.74553 12.5059 9.58925C12.6622 9.43297 12.75 9.22101 12.75 8.99999C12.75 8.77898 12.6622 8.56702 12.5059 8.41074C12.3496 8.25446 12.1376 8.16666 11.9166 8.16666H9.83329V4.83333C9.83327 4.62921 9.75833 4.43221 9.6227 4.27968C9.48706 4.12715 9.30017 4.02971 9.09746 4.00583L8.99996 3.99999Z" fill="white"/>
</svg>
