<svg width="144" height="34" viewBox="0 0 144 34" fill="none" xmlns="http://www.w3.org/2000/svg">
<rect width="144" height="34" rx="7" fill="#EAEBEC"/>
<path d="M40.736 23C40.472 23 40.25 22.91 40.07 22.73C39.89 22.55 39.8 22.328 39.8 22.064V9.878C39.8 9.602 39.89 9.38 40.07 9.212C40.25 9.032 40.472 8.942 40.736 8.942C41.012 8.942 41.234 9.032 41.402 9.212C41.582 9.38 41.672 9.602 41.672 9.878V22.064C41.672 22.328 41.582 22.55 41.402 22.73C41.234 22.91 41.012 23 40.736 23ZM53.4028 23.018C53.1388 23.018 52.9168 22.934 52.7368 22.766C52.5688 22.586 52.4848 22.364 52.4848 22.1V17.672C52.4848 16.988 52.3588 16.43 52.1068 15.998C51.8548 15.566 51.5128 15.248 51.0808 15.044C50.6608 14.828 50.1748 14.72 49.6228 14.72C49.1188 14.72 48.6628 14.822 48.2548 15.026C47.8468 15.23 47.5228 15.506 47.2828 15.854C47.0428 16.19 46.9228 16.58 46.9228 17.024H45.7888C45.7888 16.268 45.9688 15.596 46.3288 15.008C46.7008 14.408 47.2048 13.934 47.8408 13.586C48.4768 13.238 49.1908 13.064 49.9828 13.064C50.8108 13.064 51.5488 13.244 52.1968 13.604C52.8568 13.952 53.3728 14.468 53.7448 15.152C54.1288 15.836 54.3208 16.676 54.3208 17.672V22.1C54.3208 22.364 54.2308 22.586 54.0508 22.766C53.8828 22.934 53.6668 23.018 53.4028 23.018ZM46.0048 23.018C45.7408 23.018 45.5188 22.934 45.3388 22.766C45.1708 22.586 45.0868 22.364 45.0868 22.1V14.072C45.0868 13.796 45.1708 13.574 45.3388 13.406C45.5188 13.238 45.7408 13.154 46.0048 13.154C46.2808 13.154 46.5028 13.238 46.6708 13.406C46.8388 13.574 46.9228 13.796 46.9228 14.072V22.1C46.9228 22.364 46.8388 22.586 46.6708 22.766C46.5028 22.934 46.2808 23.018 46.0048 23.018ZM60.9383 23.072C60.0983 23.072 59.3183 22.946 58.5983 22.694C57.8903 22.43 57.3383 22.1 56.9423 21.704C56.7623 21.512 56.6843 21.296 56.7083 21.056C56.7443 20.804 56.8643 20.6 57.0683 20.444C57.3083 20.252 57.5423 20.174 57.7703 20.21C58.0103 20.234 58.2143 20.336 58.3823 20.516C58.5863 20.744 58.9103 20.96 59.3543 21.164C59.8103 21.356 60.3143 21.452 60.8663 21.452C61.5623 21.452 62.0903 21.338 62.4503 21.11C62.8223 20.882 63.0143 20.588 63.0263 20.228C63.0383 19.868 62.8643 19.556 62.5043 19.292C62.1563 19.028 61.5143 18.812 60.5783 18.644C59.3663 18.404 58.4843 18.044 57.9323 17.564C57.3923 17.084 57.1223 16.496 57.1223 15.8C57.1223 15.188 57.3023 14.684 57.6623 14.288C58.0223 13.88 58.4843 13.58 59.0483 13.388C59.6123 13.184 60.2003 13.082 60.8123 13.082C61.6043 13.082 62.3063 13.208 62.9183 13.46C63.5303 13.712 64.0163 14.06 64.3763 14.504C64.5443 14.696 64.6223 14.9 64.6103 15.116C64.5983 15.32 64.4963 15.494 64.3043 15.638C64.1123 15.77 63.8843 15.812 63.6203 15.764C63.3563 15.716 63.1343 15.608 62.9543 15.44C62.6543 15.152 62.3303 14.954 61.9823 14.846C61.6343 14.738 61.2323 14.684 60.7763 14.684C60.2483 14.684 59.7983 14.774 59.4263 14.954C59.0663 15.134 58.8863 15.398 58.8863 15.746C58.8863 15.962 58.9403 16.16 59.0483 16.34C59.1683 16.508 59.3963 16.664 59.7323 16.808C60.0683 16.94 60.5603 17.072 61.2083 17.204C62.1083 17.384 62.8163 17.612 63.3323 17.888C63.8603 18.164 64.2383 18.488 64.4663 18.86C64.6943 19.22 64.8083 19.64 64.8083 20.12C64.8083 20.672 64.6583 21.17 64.3583 21.614C64.0703 22.058 63.6383 22.412 63.0623 22.676C62.4983 22.94 61.7903 23.072 60.9383 23.072ZM70.7118 23C70.1118 23 69.5718 22.85 69.0918 22.55C68.6118 22.238 68.2338 21.818 67.9578 21.29C67.6818 20.762 67.5438 20.168 67.5438 19.508V10.922C67.5438 10.658 67.6278 10.442 67.7958 10.274C67.9638 10.106 68.1798 10.022 68.4438 10.022C68.7078 10.022 68.9238 10.106 69.0918 10.274C69.2598 10.442 69.3438 10.658 69.3438 10.922V19.508C69.3438 19.988 69.4758 20.39 69.7398 20.714C70.0038 21.038 70.3278 21.2 70.7118 21.2H71.3238C71.5398 21.2 71.7198 21.284 71.8638 21.452C72.0198 21.62 72.0978 21.836 72.0978 22.1C72.0978 22.364 71.9958 22.58 71.7918 22.748C71.5998 22.916 71.3478 23 71.0358 23H70.7118ZM66.7158 15.062C66.4638 15.062 66.2598 14.99 66.1038 14.846C65.9478 14.702 65.8698 14.522 65.8698 14.306C65.8698 14.066 65.9478 13.874 66.1038 13.73C66.2598 13.586 66.4638 13.514 66.7158 13.514H70.8738C71.1258 13.514 71.3298 13.586 71.4858 13.73C71.6418 13.874 71.7198 14.066 71.7198 14.306C71.7198 14.522 71.6418 14.702 71.4858 14.846C71.3298 14.99 71.1258 15.062 70.8738 15.062H66.7158ZM78.4584 23.072C77.5824 23.072 76.7964 22.856 76.1004 22.424C75.4044 21.98 74.8524 21.386 74.4444 20.642C74.0484 19.886 73.8504 19.034 73.8504 18.086C73.8504 17.138 74.0664 16.286 74.4984 15.53C74.9424 14.774 75.5364 14.18 76.2804 13.748C77.0364 13.304 77.8824 13.082 78.8184 13.082C79.7544 13.082 80.5944 13.304 81.3384 13.748C82.0824 14.18 82.6704 14.774 83.1024 15.53C83.5464 16.286 83.7684 17.138 83.7684 18.086H83.0664C83.0664 19.034 82.8624 19.886 82.4544 20.642C82.0584 21.386 81.5124 21.98 80.8164 22.424C80.1204 22.856 79.3344 23.072 78.4584 23.072ZM78.8184 21.452C79.4304 21.452 79.9764 21.308 80.4564 21.02C80.9364 20.72 81.3144 20.318 81.5904 19.814C81.8664 19.298 82.0044 18.722 82.0044 18.086C82.0044 17.438 81.8664 16.862 81.5904 16.358C81.3144 15.842 80.9364 15.44 80.4564 15.152C79.9764 14.852 79.4304 14.702 78.8184 14.702C78.2184 14.702 77.6724 14.852 77.1804 15.152C76.7004 15.44 76.3164 15.842 76.0284 16.358C75.7524 16.862 75.6144 17.438 75.6144 18.086C75.6144 18.722 75.7524 19.298 76.0284 19.814C76.3164 20.318 76.7004 20.72 77.1804 21.02C77.6724 21.308 78.2184 21.452 78.8184 21.452ZM82.8504 23.018C82.5864 23.018 82.3644 22.934 82.1844 22.766C82.0164 22.586 81.9324 22.364 81.9324 22.1V19.346L82.2744 17.438L83.7684 18.086V22.1C83.7684 22.364 83.6784 22.586 83.4984 22.766C83.3304 22.934 83.1144 23.018 82.8504 23.018ZM90.6049 23.072C89.7049 23.072 88.9069 22.862 88.2109 22.442C87.5269 22.01 86.9869 21.422 86.5909 20.678C86.1949 19.922 85.9969 19.058 85.9969 18.086C85.9969 17.102 86.2069 16.238 86.6269 15.494C87.0589 14.738 87.6469 14.15 88.3909 13.73C89.1349 13.298 89.9929 13.082 90.9649 13.082C91.9249 13.082 92.7769 13.298 93.5209 13.73C94.2649 14.15 94.8469 14.738 95.2669 15.494C95.6989 16.238 95.9149 17.102 95.9149 18.086H94.8529C94.8529 19.058 94.6669 19.922 94.2949 20.678C93.9349 21.422 93.4369 22.01 92.8009 22.442C92.1649 22.862 91.4329 23.072 90.6049 23.072ZM90.9289 27.086C90.0769 27.086 89.2789 26.918 88.5349 26.582C87.7909 26.246 87.1609 25.754 86.6449 25.106C86.4889 24.902 86.4289 24.692 86.4649 24.476C86.5129 24.26 86.6329 24.086 86.8249 23.954C87.0409 23.81 87.2629 23.762 87.4909 23.81C87.7309 23.858 87.9229 23.978 88.0669 24.17C88.3909 24.578 88.7989 24.896 89.2909 25.124C89.7829 25.352 90.3409 25.466 90.9649 25.466C91.5409 25.466 92.0689 25.328 92.5489 25.052C93.0409 24.776 93.4309 24.368 93.7189 23.828C94.0069 23.288 94.1509 22.628 94.1509 21.848V19.292L94.7449 17.708L95.9149 18.086V21.974C95.9149 22.922 95.7049 23.78 95.2849 24.548C94.8649 25.328 94.2769 25.946 93.5209 26.402C92.7769 26.858 91.9129 27.086 90.9289 27.086ZM90.9649 21.452C91.5889 21.452 92.1409 21.308 92.6209 21.02C93.1009 20.732 93.4729 20.336 93.7369 19.832C94.0129 19.328 94.1509 18.746 94.1509 18.086C94.1509 17.426 94.0129 16.844 93.7369 16.34C93.4729 15.824 93.1009 15.422 92.6209 15.134C92.1409 14.846 91.5889 14.702 90.9649 14.702C90.3409 14.702 89.7889 14.846 89.3089 15.134C88.8289 15.422 88.4509 15.824 88.1749 16.34C87.8989 16.844 87.7609 17.426 87.7609 18.086C87.7609 18.746 87.8989 19.328 88.1749 19.832C88.4509 20.336 88.8289 20.732 89.3089 21.02C89.7889 21.308 90.3409 21.452 90.9649 21.452ZM99.5293 16.844C99.5293 16.124 99.7033 15.482 100.051 14.918C100.411 14.342 100.891 13.886 101.491 13.55C102.091 13.214 102.751 13.046 103.471 13.046C104.191 13.046 104.725 13.166 105.073 13.406C105.433 13.634 105.571 13.91 105.487 14.234C105.451 14.402 105.379 14.534 105.271 14.63C105.175 14.714 105.061 14.768 104.929 14.792C104.797 14.816 104.653 14.81 104.497 14.774C103.729 14.618 103.039 14.606 102.427 14.738C101.815 14.87 101.329 15.116 100.969 15.476C100.621 15.836 100.447 16.292 100.447 16.844H99.5293ZM99.5473 23C99.2593 23 99.0373 22.928 98.8813 22.784C98.7253 22.628 98.6473 22.4 98.6473 22.1V14.054C98.6473 13.766 98.7253 13.544 98.8813 13.388C99.0373 13.232 99.2593 13.154 99.5473 13.154C99.8473 13.154 100.069 13.232 100.213 13.388C100.369 13.532 100.447 13.754 100.447 14.054V22.1C100.447 22.388 100.369 22.61 100.213 22.766C100.069 22.922 99.8473 23 99.5473 23ZM110.785 23.072C109.909 23.072 109.123 22.856 108.427 22.424C107.731 21.98 107.179 21.386 106.771 20.642C106.375 19.886 106.177 19.034 106.177 18.086C106.177 17.138 106.393 16.286 106.825 15.53C107.269 14.774 107.863 14.18 108.607 13.748C109.363 13.304 110.209 13.082 111.145 13.082C112.081 13.082 112.921 13.304 113.665 13.748C114.409 14.18 114.997 14.774 115.429 15.53C115.873 16.286 116.095 17.138 116.095 18.086H115.393C115.393 19.034 115.189 19.886 114.781 20.642C114.385 21.386 113.839 21.98 113.143 22.424C112.447 22.856 111.661 23.072 110.785 23.072ZM111.145 21.452C111.757 21.452 112.303 21.308 112.783 21.02C113.263 20.72 113.641 20.318 113.917 19.814C114.193 19.298 114.331 18.722 114.331 18.086C114.331 17.438 114.193 16.862 113.917 16.358C113.641 15.842 113.263 15.44 112.783 15.152C112.303 14.852 111.757 14.702 111.145 14.702C110.545 14.702 109.999 14.852 109.507 15.152C109.027 15.44 108.643 15.842 108.355 16.358C108.079 16.862 107.941 17.438 107.941 18.086C107.941 18.722 108.079 19.298 108.355 19.814C108.643 20.318 109.027 20.72 109.507 21.02C109.999 21.308 110.545 21.452 111.145 21.452ZM115.177 23.018C114.913 23.018 114.691 22.934 114.511 22.766C114.343 22.586 114.259 22.364 114.259 22.1V19.346L114.601 17.438L116.095 18.086V22.1C116.095 22.364 116.005 22.586 115.825 22.766C115.657 22.934 115.441 23.018 115.177 23.018ZM131.751 23.018C131.487 23.018 131.265 22.934 131.085 22.766C130.917 22.586 130.833 22.364 130.833 22.1V16.952C130.833 16.196 130.647 15.638 130.275 15.278C129.903 14.906 129.417 14.72 128.817 14.72C128.193 14.72 127.677 14.936 127.269 15.368C126.873 15.8 126.675 16.352 126.675 17.024H125.181C125.181 16.244 125.349 15.56 125.685 14.972C126.021 14.372 126.489 13.904 127.089 13.568C127.701 13.232 128.397 13.064 129.177 13.064C129.861 13.064 130.467 13.214 130.995 13.514C131.523 13.814 131.931 14.258 132.219 14.846C132.519 15.422 132.669 16.124 132.669 16.952V22.1C132.669 22.364 132.585 22.586 132.417 22.766C132.249 22.934 132.027 23.018 131.751 23.018ZM119.745 23.018C119.481 23.018 119.259 22.934 119.079 22.766C118.911 22.586 118.827 22.364 118.827 22.1V14.09C118.827 13.814 118.911 13.592 119.079 13.424C119.259 13.256 119.481 13.172 119.745 13.172C120.021 13.172 120.243 13.256 120.411 13.424C120.579 13.592 120.663 13.814 120.663 14.09V22.1C120.663 22.364 120.579 22.586 120.411 22.766C120.243 22.934 120.021 23.018 119.745 23.018ZM125.757 23.018C125.493 23.018 125.271 22.934 125.091 22.766C124.923 22.586 124.839 22.364 124.839 22.1V16.952C124.839 16.196 124.653 15.638 124.281 15.278C123.909 14.906 123.423 14.72 122.823 14.72C122.199 14.72 121.683 14.936 121.275 15.368C120.867 15.8 120.663 16.352 120.663 17.024H119.529C119.529 16.244 119.685 15.56 119.997 14.972C120.309 14.372 120.741 13.904 121.293 13.568C121.845 13.232 122.475 13.064 123.183 13.064C123.867 13.064 124.473 13.214 125.001 13.514C125.529 13.814 125.937 14.258 126.225 14.846C126.525 15.422 126.675 16.124 126.675 16.952V22.1C126.675 22.364 126.591 22.586 126.423 22.766C126.255 22.934 126.033 23.018 125.757 23.018Z" fill="#042F36"/>
<path d="M21 13.75C20.138 13.75 19.3114 14.0924 18.7019 14.7019C18.0924 15.3114 17.75 16.138 17.75 17C17.75 17.862 18.0924 18.6886 18.7019 19.2981C19.3114 19.9076 20.138 20.25 21 20.25C21.862 20.25 22.6886 19.9076 23.2981 19.2981C23.9076 18.6886 24.25 17.862 24.25 17C24.25 16.138 23.9076 15.3114 23.2981 14.7019C22.6886 14.0924 21.862 13.75 21 13.75Z" fill="#042F36"/>
<path fill-rule="evenodd" clip-rule="evenodd" d="M15.7696 8.082C19.2457 7.69693 22.7536 7.69693 26.2296 8.082C28.1286 8.294 29.6596 9.789 29.8826 11.695C30.2946 15.2197 30.2946 18.7803 29.8826 22.305C29.6596 24.211 28.1286 25.706 26.2306 25.919C22.7543 26.3041 19.246 26.3041 15.7696 25.919C13.8706 25.706 12.3396 24.211 12.1166 22.306C11.7046 18.781 11.7046 15.22 12.1166 11.695C12.3396 9.789 13.8706 8.294 15.7696 8.082ZM25.9996 11C25.7344 11 25.4801 11.1054 25.2925 11.2929C25.105 11.4804 24.9996 11.7348 24.9996 12C24.9996 12.2652 25.105 12.5196 25.2925 12.7071C25.4801 12.8946 25.7344 13 25.9996 13C26.2648 13 26.5192 12.8946 26.7067 12.7071C26.8943 12.5196 26.9996 12.2652 26.9996 12C26.9996 11.7348 26.8943 11.4804 26.7067 11.2929C26.5192 11.1054 26.2648 11 25.9996 11ZM16.2496 17C16.2496 15.7402 16.7501 14.532 17.6409 13.6412C18.5317 12.7504 19.7399 12.25 20.9996 12.25C22.2594 12.25 23.4676 12.7504 24.3584 13.6412C25.2492 14.532 25.7496 15.7402 25.7496 17C25.7496 18.2598 25.2492 19.468 24.3584 20.3588C23.4676 21.2496 22.2594 21.75 20.9996 21.75C19.7399 21.75 18.5317 21.2496 17.6409 20.3588C16.7501 19.468 16.2496 18.2598 16.2496 17Z" fill="#042F36"/>
</svg>
