<svg width="30" height="30" viewBox="0 0 30 30" fill="none" xmlns="http://www.w3.org/2000/svg">
<rect width="30" height="30" rx="15" transform="matrix(-1 0 0 1 30 0)" fill="white" fill-opacity="0.3"/>
<path d="M17.7315 21.6531L11.6795 15.504C11.5468 15.3699 11.4723 15.1888 11.4723 15C11.4723 14.8113 11.5468 14.6302 11.6795 14.496L17.7301 8.34697C17.8628 8.21198 17.9371 8.03028 17.9371 7.841C17.9371 7.65173 17.8628 7.47003 17.7301 7.33504C17.6653 7.26856 17.5879 7.21573 17.5023 7.17966C17.4168 7.14358 17.3249 7.125 17.2321 7.125C17.1392 7.125 17.0473 7.14358 16.9618 7.17966C16.8762 7.21573 16.7988 7.26856 16.734 7.33504L10.6833 13.4828C10.2857 13.8877 10.063 14.4325 10.063 15C10.063 15.5675 10.2857 16.1124 10.6833 16.5173L16.734 22.665C16.7988 22.7317 16.8763 22.7847 16.962 22.8209C17.0477 22.8571 17.1397 22.8757 17.2327 22.8757C17.3257 22.8757 17.4178 22.8571 17.5034 22.8209C17.5891 22.7847 17.6666 22.7317 17.7315 22.665C17.8641 22.53 17.9385 22.3483 17.9385 22.1591C17.9385 21.9698 17.8641 21.7881 17.7315 21.6531Z" fill="white" fill-opacity="0.8"/>
</svg>
