<svg width="30" height="30" viewBox="0 0 30 30" fill="none" xmlns="http://www.w3.org/2000/svg">
<rect width="30" height="30" rx="15" fill="white" fill-opacity="0.3"/>
<path d="M12.2685 21.6531L18.3205 15.504C18.4532 15.3699 18.5277 15.1888 18.5277 15C18.5277 14.8113 18.4532 14.6302 18.3205 14.496L12.2699 8.34697C12.1372 8.21198 12.0629 8.03028 12.0629 7.841C12.0629 7.65173 12.1372 7.47003 12.2699 7.33504C12.3347 7.26856 12.4121 7.21573 12.4977 7.17966C12.5832 7.14358 12.6751 7.125 12.7679 7.125C12.8608 7.125 12.9527 7.14358 13.0382 7.17966C13.1238 7.21573 13.2012 7.26856 13.266 7.33504L19.3167 13.4828C19.7143 13.8877 19.937 14.4325 19.937 15C19.937 15.5675 19.7143 16.1124 19.3167 16.5173L13.266 22.665C13.2012 22.7317 13.1237 22.7847 13.038 22.8209C12.9523 22.8571 12.8603 22.8757 12.7673 22.8757C12.6743 22.8757 12.5822 22.8571 12.4966 22.8209C12.4109 22.7847 12.3334 22.7317 12.2685 22.665C12.1359 22.53 12.0615 22.3483 12.0615 22.1591C12.0615 21.9698 12.1359 21.7881 12.2685 21.6531Z" fill="white" fill-opacity="0.8"/>
</svg>
